<?xml version="1.0" encoding="UTF-8"?>
<svg id="Laag_2" data-name="Laag 2" xmlns="http://www.w3.org/2000/svg" viewBox="0 0 58.56 15.86">
  <defs>
    <style>
      .cls-1 {
        fill: #1d1d1b;
      }

      .cls-2 {
        stroke-linecap: round;
      }

      .cls-2, .cls-3 {
        fill: none;
        stroke: #1d1d1b;
        stroke-miterlimit: 10;
      }
    </style>
  </defs>
  <g id="Laag_2-2" data-name="Laag 2">
    <circle class="cls-3" cx="6.85" cy="7.3" r="6.35"/>
    <path class="cls-2" d="M11.49,11.74c1.22,1.2,2.44,2.41,3.66,3.61"/>
    <rect class="cls-2" x="31.29" y="3.72" width="15" height="11.13" rx=".46" ry=".46"/>
    <path class="cls-2" d="M41.82,6.94v-3.63c0-1.55-1.26-2.81-2.81-2.81h-.69c-1.55,0-2.81,1.26-2.81,2.81v3.63"/>
    <g>
      <path class="cls-1" d="M49.99,14.85c-.44-.69-.81-1.5-1.11-2.42-.3-.92-.45-1.88-.45-2.87,0-.87.11-1.71.34-2.51.26-.93.67-1.85,1.22-2.77h.57c-.35.76-.59,1.31-.7,1.63-.18.51-.32,1.03-.42,1.58-.13.69-.19,1.38-.19,2.07,0,1.76.44,3.53,1.31,5.29h-.57Z"/>
      <path class="cls-1" d="M54.24,12.48h-.79v-6.31c-.19.23-.44.45-.75.68-.31.23-.59.4-.83.51v-.96c.44-.26.83-.58,1.16-.95.33-.37.56-.73.7-1.08h.51v8.1Z"/>
      <path class="cls-1" d="M57,14.85h-.57c.88-1.76,1.31-3.52,1.31-5.29,0-.69-.06-1.37-.19-2.05-.1-.55-.24-1.08-.42-1.58-.11-.33-.35-.88-.71-1.65h.57c.55.92.96,1.84,1.22,2.77.22.8.34,1.64.34,2.51,0,.99-.15,1.95-.46,2.87-.3.92-.67,1.73-1.11,2.42Z"/>
    </g>
  </g>
</svg>